PathFileType	4	(X/Y/Z)	C:\Users\°ÂÌØÂü\Desktop\20210112\bx_y_10_502-Unnamed.trc
DataRate	CameraRate	NumFrames	NumMarkers	Units	OrigDataRate	OrigDataStartFrame	OrigNumFrames
50.00	50.00	       9	0	mm	50.00	250	       499
Frame#	Time	
		

250	4.980				-680.09430	206.73753	535.87640	-655.35352	284.32877	881.97760	-689.65521	84.56333	576.59454	-588.53741	-0.74951	806.20105	-732.34052	-81.37813	1536.95874	-730.35846	249.94490	647.21875	-735.20984	244.70512	579.19012	-667.61615	21.75575	520.40057	-776.21558	252.98285	505.25311	-694.46106	144.01707	576.84424	-716.58685	79.02338	215.82202	-595.55756	221.32216	820.43921	-771.74219	222.10861	205.79485	-882.58838	296.24594	144.71477	-675.62274	55.01617	157.15634	-603.17572	19.15356	166.78784	-675.77997	174.22372	157.54211	-594.92639	222.68738	173.66423	-667.10834	299.60376	159.53885	-629.61481	307.32117	161.41081	-560.49634	261.43039	164.62358	-528.09106	304.70688	146.64671	-754.93903	100.91927	1846.82373	-723.94019	271.71439	1546.20703	-804.22961	93.62669	1058.65771	-518.04175	-72.74870	142.87456	-796.55554	171.47147	184.49203	-638.43817	92.81640	1431.81897	-653.96613	-63.09384	871.87933	-767.05945	-3.26668	208.53783	-794.72742	57.07706	175.14951	-763.91852	-31.71622	490.46552	-665.26666	-67.12203	162.93813	-876.03320	-78.59757	141.50241				-699.61163	-24.83106	618.59253	-559.65198	-40.56776	162.57236	-624.12305	-78.56122	159.14687	-702.60223	272.73053	751.98334	-697.58051	-43.86060	720.10822	-711.34747	152.40685	217.00826	-715.46704	-21.20666	568.73456	
251	5.000				-680.20667	206.71454	536.03931	-655.45654	284.35550	882.01392	-689.85425	84.64211	576.33887	-588.65710	-0.59632	806.20465	-732.26013	-81.46473	1537.17102	-730.41553	249.79646	647.29199	-735.32349	244.73378	579.29639	-667.46472	21.64926	520.53760	-776.34412	253.14549	505.28094	-694.46106	144.01707	576.84424	-716.51257	78.99479	215.89655	-595.59369	221.19942	820.34796	-771.87189	222.27560	205.71632	-882.48029	296.33026	144.85162	-675.36597	55.15363	157.30553	-603.13971	19.36539	166.52652	-675.93579	174.21092	157.57204	-594.92126	222.72168	173.74106	-667.15295	299.53812	159.41336	-629.61481	307.32117	161.41081	-560.50476	261.42212	164.57768	-528.08289	304.50589	146.80527	-754.22675	101.20863	1846.90308	-723.53357	271.68881	1546.19592	-804.55139	93.55528	1058.63782	-517.91284	-72.46512	142.95148	-796.35773	171.49742	184.47861	-638.53387	92.86842	1431.72070	-654.28735	-63.21663	872.04700	-767.32196	-3.42116	208.48109	-794.55743	57.22026	175.15089	-763.91852	-31.71622	490.46552	-665.41382	-67.08007	162.91708	-876.17596	-78.55567	141.83234				-699.85083	-24.96589	618.85889	-559.60492	-40.58414	162.75592	-624.20557	-78.68237	159.35724	-702.89014	272.45605	752.07068	-697.60571	-44.03619	719.90631	-711.46497	152.37816	217.22937	-715.68805	-21.24562	568.71893	
252	5.020				-680.26471	206.61082	535.94476	-655.64423	284.08795	881.96289	-690.40411	84.49046	576.79846	-589.01141	-0.72570	806.33490	-731.84607	-81.49486	1536.98511	-730.64905	250.03351	647.31171	-736.44696	244.40938	578.81116	-667.75690	21.86671	520.25409	-776.56146	253.06973	505.20639	-694.60840	143.87421	577.12878	-716.83282	79.18294	215.82558	-595.82153	221.21034	820.67377	-771.75262	222.19386	205.86021	-882.46735	296.11185	144.67628	-675.31494	55.14600	156.92534	-603.14758	19.38569	166.28047	-675.85876	173.98691	157.82726	-594.75311	222.70818	173.69611	-667.15295	299.53812	159.41336	-629.53192	307.11737	161.52202	-560.34644	261.16397	164.58450	-528.11536	304.45233	146.53067	-753.34644	101.15476	1847.02893	-723.28235	271.88123	1546.36890	-804.74561	93.52604	1058.70496	-518.00586	-72.45615	142.87799	-796.62494	171.59636	184.54196	-638.03204	92.89217	1431.89612	-654.85364	-62.92813	871.78485	-766.62585	-3.36466	208.52579	-794.59790	57.13780	175.05299	-764.17407	-31.76805	490.14249	-665.41455	-67.24198	163.21780	-876.05621	-78.49118	141.57738				-700.29407	-24.99619	618.99084	-559.79132	-40.62980	162.73483	-624.27747	-78.68861	159.27216	-703.19659	272.43536	751.82739	-697.98297	-43.87653	719.65985	-711.46497	152.37816	217.22937	-716.19763	-21.11229	568.42694	
253	5.040				-680.76752	206.69296	535.69073	-656.19489	283.85269	881.85291	-690.88348	84.29640	576.85016	-589.26117	-0.72473	806.26373	-731.42047	-81.78745	1537.06653	-731.21167	249.78954	647.21246	-736.42767	244.34138	578.92084	-667.82684	21.82631	520.33350	-776.67828	252.97798	504.87756	-694.91138	143.93881	577.03180	-716.51257	78.99479	215.89655	-596.51526	221.02109	820.85309	-771.69940	222.08134	205.67017	-882.45593	296.22400	144.77756	-675.67163	55.11161	157.02676	-603.10260	19.27822	166.32507	-675.64069	174.13382	157.68219	-594.75311	222.70818	173.69611	-667.20380	299.54184	159.49550	-629.58221	307.22745	161.47311	-560.31378	261.36227	164.47295	-528.16150	304.17200	146.42805	-752.60822	100.89557	1847.16797	-722.97784	271.95905	1546.60266	-804.82483	93.54298	1058.65454	-518.10992	-72.40217	142.58037	-796.47772	171.42113	184.29559	-638.28589	92.76117	1431.91907	-655.24176	-63.03564	871.82605	-766.70337	-3.28196	208.43584	-794.42224	57.24021	175.19302	-764.49658	-31.89458	490.13721	-665.21826	-67.16769	163.01616	-876.02838	-78.54763	141.55200				-700.75562	-25.29775	618.79333	-559.79132	-40.62980	162.73483	-624.30438	-78.40878	159.15889	-703.90387	272.37549	752.39349	-698.70166	-43.77478	719.52808	-711.27618	152.29285	217.47636	-716.71106	-21.25653	568.81653	
254	5.060				-681.00806	206.63994	535.68878	-656.53918	283.74619	881.96136	-691.01758	84.22620	576.57257	-590.04858	-0.93637	806.05597	-731.08783	-82.17410	1537.28638	-731.97229	249.95197	647.25787	-736.81171	244.64091	579.26929	-668.23395	21.47122	520.31067	-776.99475	253.33507	504.84787	-694.91138	143.93881	577.03180	-716.58020	79.12231	215.77264	-597.02271	220.99638	820.69360	-771.77856	222.16937	205.87178	-882.50342	296.22003	144.72592	-675.41486	55.24907	157.17596	-603.03351	19.30560	166.42371	-675.70294	173.99973	157.79733	-594.70868	222.75354	173.56548	-667.10834	299.60376	159.53885	-629.53192	307.11737	161.52202	-560.45294	261.33969	164.61938	-528.03979	304.43768	146.58080	-752.01587	101.17616	1847.27490	-722.20837	271.64972	1546.55017	-805.66791	93.40865	1058.73828	-518.02948	-72.20926	142.63350	-796.52301	171.41142	184.43863	-637.60114	92.28843	1431.72717	-656.26959	-62.91033	871.52014	-766.85516	-3.14799	208.42365	-794.48285	57.19900	175.04581	-764.82434	-31.79071	489.97504	-665.14008	-67.21648	163.15642	-876.13251	-78.56548	141.43300				-701.16364	-24.87633	618.36456	-559.66925	-40.53553	162.78586	-624.17041	-78.62225	159.30711	-704.75751	272.66156	752.36578	-699.46454	-44.17663	719.90692	-711.27618	152.29285	217.47636	-716.90369	-21.15884	568.56696	
255	5.080				-681.57092	206.52625	535.58710	-657.67383	283.25314	881.91382	-691.39148	84.13616	576.29211	-591.07831	-1.25319	805.93561	-730.74792	-82.46017	1537.41724	-732.85217	249.70827	647.01782	-737.01111	244.89880	579.32166	-668.77515	21.24159	520.42163	-777.68610	253.21274	504.89554	-695.58673	143.65596	577.57428	-716.32068	79.17146	215.94525	-597.92047	220.85399	820.50507	-771.75818	222.31621	205.81219	-882.48578	296.13718	144.66689	-675.28876	55.07516	157.17891	-603.25201	19.46918	166.31357	-675.70294	173.99973	157.79733	-594.75311	222.70818	173.69611	-667.15295	299.53812	159.41336	-629.58221	307.22745	161.47311	-560.29510	261.27277	164.60732	-527.91608	304.27734	146.74899	-751.04889	101.12274	1847.38098	-721.16907	272.55405	1547.13916	-806.61420	93.33273	1058.94287	-518.00586	-72.45615	142.87799	-796.44800	171.56354	184.48372	-637.21350	92.05528	1431.69092	-656.64917	-63.10928	871.52972	-766.90765	-3.10898	208.15062	-794.50629	57.17439	175.12219	-764.98407	-31.80570	490.06516	-665.14313	-67.07621	163.01247	-876.13934	-78.71100	141.67271				-701.58478	-24.86723	618.57770	-559.79132	-40.62980	162.73483	-624.17938	-78.50381	159.13773	-705.19153	272.64111	752.30548	-699.95990	-44.27287	719.69958	-711.46497	152.37816	217.22937	-717.14026	-20.94993	568.43475	
256	5.100				-682.56696	206.52946	535.56232	-658.44293	283.01709	881.82410	-691.68073	84.14211	576.43140	-591.47827	-1.56025	806.06580	-730.21118	-82.40896	1537.83728	-733.27264	249.63844	646.97241	-737.91272	244.80316	578.91364	-669.69226	21.30034	520.29596	-778.36523	253.00424	504.90829	-696.22797	143.39578	577.49255	-716.48456	79.50609	216.60109	-598.53430	221.14896	820.65289	-771.83148	222.36295	205.68550	-882.47418	295.97089	144.53862	-675.28876	55.07516	157.17891	-603.17291	19.22084	166.49532	-675.64069	174.13382	157.68219	-594.83636	222.69336	173.63829	-667.20380	299.54184	159.49550	-629.58221	307.22745	161.47311	-560.37659	261.33444	164.69376	-528.07855	304.32205	146.58138	-750.05109	101.27857	1847.76953	-720.35931	272.45520	1547.27759	-807.37329	93.48602	1058.97302	-517.97583	-72.54118	142.77574	-796.51294	171.60515	184.43446	-636.78925	91.81586	1431.63916	-658.10864	-63.54705	871.75116	-766.91724	-3.11863	208.22522	-794.70514	57.29037	175.01797	-765.50885	-31.75616	489.78622	-665.16058	-67.17939	163.01198	-876.13934	-78.71100	141.67271							-559.81964	-40.54763	162.63828	-624.13043	-78.49619	159.11925	-705.94836	272.07315	752.03534	-700.95697	-44.29280	719.77625	-711.55878	152.54524	217.46245	-717.92456	-21.22435	568.33148	
257	5.120	-705.24585	-23.77762	617.36499	-683.41589	206.78676	535.35638	-660.43103	282.30554	880.95251	-692.21747	84.07067	576.83002	-593.02948	-1.83467	806.35339	-729.45837	-82.79256	1538.42114	-734.76306	249.63261	646.76605	-739.19037	244.03548	578.17834	-670.09851	21.44240	520.32898	-779.21777	253.17892	504.88763	-696.83063	142.94386	577.78058	-716.28516	79.32413	216.47255	-599.88049	221.02434	820.34308	-771.87744	222.39807	205.66829	-882.56543	296.24789	144.84554	-675.37927	54.87233	157.30278	-603.06207	19.32550	166.44621	-675.70294	173.99973	157.79733	-594.87543	222.80740	173.56557	-667.10834	299.60376	159.53885	-629.56610	307.21243	161.46092	-560.35187	261.30313	164.56404	-528.05426	304.57660	146.69742	-748.82501	101.32974	1848.07739	-719.61713	272.55801	1547.39526	-808.24646	93.45610	1059.36621	-518.02936	-72.54685	143.01344	-796.72473	171.59628	184.46603	-636.45410	91.69866	1431.68555	-659.26581	-63.43363	871.46710	-767.06708	-2.96829	208.13776	-794.55487	57.14360	174.91487	-765.96277	-31.83372	489.74359	-665.20135	-67.13198	163.08881	-876.13934	-78.71100	141.67271							-559.69757	-40.45336	162.68930	-624.18970	-78.49678	159.12318	-706.93335	272.01608	751.98248	-702.06732	-44.25336	719.48517	-711.55652	152.42506	217.14616	-718.55219	-21.22229	568.14288	
258	5.140	-706.04407	-23.93007	617.39185	-683.73639	206.52057	535.37360	-660.81952	283.40781	881.84534	-693.45270	83.81851	576.79980	-594.16577	-2.31543	806.48804	-729.00800	-82.86896	1538.66492	-735.45697	249.24518	646.69812	-739.50549	244.63818	578.87769	-670.41119	21.34318	520.23895	-779.76422	253.59883	504.75159	-698.21320	142.93234	577.56714				-600.67590	220.96567	820.23370	-771.94312	222.35185	205.64172	-882.50342	296.22003	144.72592	-675.41925	55.02098	157.43025	-603.07147	19.12529	166.59053	-675.71948	173.89702	157.96732	-594.75311	222.70818	173.69611	-667.10834	299.60376	159.53885	-629.58221	307.22745	161.47311	-560.40936	261.29065	164.70586	-528.07855	304.32205	146.58138	-747.05927	101.42665	1848.10938	-718.74396	272.34921	1547.75867	-809.54584	93.36091	1059.40918	-517.87592	-72.51461	142.89218	-796.78003	171.76196	184.35493	-636.46478	91.19897	1431.40527	-660.74591	-63.37964	871.50391	-767.23309	-3.24149	208.22354	-794.86084	57.10344	175.15587	-766.25500	-31.98680	489.56921	-665.26208	-67.19582	163.01132	-876.13934	-78.71100	141.67271	-716.75208	78.86519	216.07047				-559.66925	-40.53553	162.78586	-624.12848	-78.54120	159.40860	-708.80255	272.20816	752.09235	-703.37787	-44.39119	719.49475	-711.58350	152.53366	217.34583	-719.35144	-21.46581	568.39697	
